<?xml version="1.0" standalone="no"?>
<!DOCTYPE svg PUBLIC "-//W3C//DTD SVG 20010904//EN"
 "http://www.w3.org/TR/2001/REC-SVG-20010904/DTD/svg10.dtd">
<svg version="1.0" xmlns="http://www.w3.org/2000/svg"
 width="300.000000pt" height="300.000000pt" viewBox="0 0 300.000000 300.000000"
 preserveAspectRatio="xMidYMid meet">
<metadata>
Created by potrace 1.14, written by Peter Selinger 2001-2017
</metadata>
<g transform="translate(0.000000,300.000000) scale(0.100000,-0.100000)"
fill="#000000" stroke="none">
<path d="M1375 2243 c-52 -13 -114 -36 -151 -58 -81 -48 -177 -161 -189 -225
-5 -24 19 -43 80 -65 147 -52 295 -172 355 -285 56 -106 75 -185 81 -330 7
-181 174 -376 416 -487 136 -62 389 -1 521 126 141 136 176 341 88 524 -112
234 -393 329 -626 213 l-46 -23 12 56 c59 288 -157 557 -450 559 -39 0 -80 -2
-91 -5z"/>
<path d="M808 1785 c-1 -2 -19 -5 -38 -8 -95 -15 -169 -54 -246 -131 -205
-206 -197 -558 19 -752 61 -55 122 -87 208 -109 54 -15 122 -18 448 -19 307
-1 387 2 398 12 18 18 19 16 -30 64 -129 128 -181 249 -191 443 -9 161 -38
236 -126 326 -82 84 -260 162 -394 174 -24 2 -46 2 -48 0z"/>
</g>
</svg>
