<svg width="248" height="248" viewBox="0 0 248 248" fill="none" xmlns="http://www.w3.org/2000/svg">
<g opacity="0.4" filter="url(#filter0_f_404_330)">
<path d="M129.56 56.4331C115.567 75.4319 113.141 101.36 125.485 122.74C137.828 144.121 161.496 154.983 184.946 152.364C179.96 159.134 173.505 165.024 165.727 169.515C136.119 186.609 98.545 176.959 81.8027 147.96C65.0604 118.962 75.4899 81.5962 105.098 64.5021C112.876 60.0112 121.204 57.3663 129.56 56.4331Z" fill="#FFEE94" fill-opacity="0.5"/>
</g>
<g filter="url(#filter1_i_404_330)">
<path d="M95.7402 86.9803C95.8167 86.5259 95.8566 86.0585 95.8566 85.5814C95.8566 81.1182 92.3639 77.5 88.0554 77.5C84.8524 77.5 82.1002 79.4996 80.8988 82.3596C79.9254 81.489 78.6624 80.9634 77.2822 80.9634C74.2047 80.9634 71.7099 83.5766 71.7099 86.8C71.7099 86.9795 71.7177 87.1571 71.7328 87.3325C70.2526 88.0835 69.2333 89.6595 69.2333 91.4821C69.2333 94.0325 71.2292 96.1 73.6912 96.1H94.7422C97.2042 96.1 99.2 94.0325 99.2 91.4821C99.2 89.2871 97.7217 87.4498 95.7402 86.9803Z" fill="url(#paint0_linear_404_330)"/>
</g>
<g filter="url(#filter2_i_404_330)">
<path d="M168.185 137.181C168.534 135.212 168.715 133.187 168.715 131.119C168.715 111.779 152.817 96.1001 133.206 96.1001C118.627 96.1001 106.1 104.765 100.631 117.158C96.2008 113.386 90.452 111.108 84.1697 111.108C70.1618 111.108 58.8061 122.432 58.8061 136.4C58.8061 137.178 58.8413 137.948 58.9102 138.707C52.1726 141.962 47.5333 148.791 47.5333 156.689C47.5333 167.741 56.6179 176.7 67.8243 176.7H163.642C174.849 176.7 183.933 167.741 183.933 156.689C183.933 147.177 177.204 139.216 168.185 137.181Z" fill="url(#paint1_linear_404_330)"/>
</g>
<g filter="url(#filter3_i_404_330)">
<path fill-rule="evenodd" clip-rule="evenodd" d="M189.288 85.7952C189.288 87.1999 189.167 88.5763 188.934 89.9142C194.947 91.2965 199.433 96.7064 199.433 103.169C199.433 110.679 193.377 116.767 185.906 116.767H165.605C160.048 104.583 147.631 96.1 133.206 96.1C123.724 96.1 115.11 99.7654 108.741 105.738C108.583 104.906 108.5 104.048 108.5 103.169C108.5 97.803 111.593 93.1626 116.085 90.9511C116.039 90.4348 116.015 89.9118 116.015 89.3833C116.015 79.8921 123.586 72.1979 132.924 72.1979C137.112 72.1979 140.945 73.7455 143.899 76.3087C147.544 67.8878 155.896 62 165.615 62C178.689 62 189.288 72.6535 189.288 85.7952Z" fill="url(#paint2_linear_404_330)"/>
</g>
<g filter="url(#filter4_i_404_330)">
<path fill-rule="evenodd" clip-rule="evenodd" d="M121.308 76.8953C123.075 72.5053 125.402 68.3144 128.256 64.4392C120.629 65.2911 113.026 67.7055 105.926 71.8049C90.4711 80.7277 80.7408 95.7011 78.0992 111.837C80.0442 111.361 82.0773 111.108 84.1697 111.108C90.452 111.108 96.2008 113.386 100.631 117.158C102.543 112.825 105.318 108.948 108.741 105.738C108.583 104.906 108.5 104.047 108.5 103.169C108.5 97.8029 111.593 93.1626 116.085 90.9511C116.039 90.4347 116.015 89.9118 116.015 89.3833C116.015 84.4643 118.049 80.0279 121.308 76.8953Z" fill="url(#paint3_linear_404_330)"/>
</g>
<g filter="url(#filter5_i_404_330)">
<path d="M87.3935 204.6C87.2256 204.6 87.0646 204.532 86.9458 204.411C86.8271 204.29 86.7604 204.125 86.7604 203.954V202.284L85.9425 203.12C85.8236 203.241 85.6625 203.309 85.4945 203.309C85.3265 203.309 85.1654 203.24 85.0467 203.119C84.928 202.998 84.8614 202.833 84.8615 202.662C84.8616 202.491 84.9285 202.326 85.0473 202.205L86.7604 200.458V195.385L82.4556 197.921L81.8276 200.31C81.784 200.476 81.6777 200.617 81.5321 200.702C81.3866 200.788 81.2137 200.811 81.0515 200.766C80.8893 200.722 80.7511 200.613 80.6673 200.465C80.5834 200.316 80.5609 200.14 80.6045 199.975L80.9046 198.835L79.4866 199.67C79.3412 199.754 79.1691 199.776 79.0078 199.732C78.8465 199.687 78.709 199.579 78.6254 199.431C78.5418 199.284 78.5189 199.108 78.5616 198.943C78.6044 198.778 78.7093 198.637 78.8535 198.551L80.2715 197.717L79.1523 197.411C79.072 197.389 78.9967 197.351 78.9308 197.299C78.8649 197.247 78.8096 197.183 78.7681 197.109C78.7266 197.036 78.6997 196.954 78.6889 196.87C78.6782 196.786 78.6837 196.701 78.7054 196.619C78.727 196.537 78.7642 196.46 78.8149 196.393C78.8656 196.326 78.9288 196.269 79.0009 196.227C79.0729 196.185 79.1525 196.157 79.2349 196.146C79.3174 196.135 79.4012 196.141 79.4815 196.163L81.8213 196.802L86.1274 194.267L81.8225 191.731L79.4802 192.371C79.3191 192.411 79.1486 192.386 79.0056 192.3C78.8625 192.214 78.7584 192.074 78.7155 191.911C78.6727 191.747 78.6946 191.573 78.7765 191.425C78.8584 191.278 78.9939 191.169 79.1536 191.123L80.2715 190.817L78.8535 189.982C78.7809 189.94 78.7172 189.884 78.6661 189.816C78.6149 189.749 78.5773 189.672 78.5554 189.59C78.5336 189.508 78.5278 189.422 78.5386 189.338C78.5494 189.253 78.5764 189.172 78.6181 189.098C78.6599 189.024 78.7155 188.959 78.7818 188.908C78.8482 188.856 78.9239 188.818 79.0046 188.796C79.0853 188.775 79.1694 188.769 79.2521 188.781C79.3349 188.792 79.4145 188.821 79.4866 188.864L80.9046 189.698L80.6045 188.558C80.5815 188.475 80.5748 188.389 80.5848 188.304C80.5948 188.219 80.6213 188.136 80.6627 188.062C80.7042 187.987 80.7598 187.922 80.8263 187.869C80.8928 187.817 80.9688 187.779 81.05 187.756C81.1312 187.734 81.2159 187.729 81.2991 187.741C81.3824 187.752 81.4625 187.781 81.5349 187.824C81.6073 187.868 81.6704 187.925 81.7207 187.994C81.7709 188.063 81.8073 188.141 81.8276 188.224L82.4543 190.613L86.7604 193.148V188.076L85.0473 186.328C84.9885 186.268 84.9418 186.197 84.9099 186.119C84.878 186.04 84.8616 185.956 84.8615 185.871C84.8615 185.786 84.8778 185.702 84.9096 185.624C84.9413 185.546 84.9879 185.474 85.0467 185.414C85.1055 185.354 85.1753 185.307 85.2521 185.274C85.3289 185.241 85.4113 185.225 85.4945 185.225C85.5777 185.225 85.66 185.241 85.7369 185.274C85.8138 185.306 85.8836 185.354 85.9425 185.414L86.7604 186.249V184.579C86.7604 184.408 86.8271 184.244 86.9458 184.123C87.0646 184.001 87.2256 183.933 87.3935 183.933C87.5614 183.933 87.7224 184.001 87.8411 184.123C87.9598 184.244 88.0265 184.408 88.0265 184.579V186.249L88.8457 185.414C88.9646 185.293 89.1257 185.225 89.2937 185.225C89.4617 185.225 89.6228 185.293 89.7415 185.414C89.8602 185.536 89.9268 185.7 89.9267 185.871C89.9266 186.043 89.8597 186.207 89.7409 186.328L88.0265 188.076V193.148L92.3313 190.613L92.9593 188.223C93.003 188.058 93.1093 187.917 93.2548 187.831C93.4004 187.746 93.5733 187.722 93.7355 187.767C93.8977 187.812 94.0359 187.92 94.1197 188.068C94.2035 188.217 94.2261 188.393 94.1824 188.559L93.8836 189.698L95.3017 188.864C95.447 188.779 95.6191 188.757 95.7804 188.802C95.9417 188.846 96.0792 188.954 96.1628 189.102C96.2464 189.25 96.2693 189.425 96.2266 189.59C96.1838 189.755 96.0789 189.896 95.9347 189.982L94.5167 190.817L95.6346 191.123C95.7968 191.167 95.935 191.276 96.0189 191.424C96.1027 191.573 96.1252 191.749 96.0816 191.915C96.0379 192.08 95.9316 192.221 95.7861 192.307C95.6405 192.392 95.4676 192.415 95.3055 192.371L92.9657 191.731L88.6596 194.267L92.9644 196.802L95.3055 196.163C95.4676 196.118 95.6405 196.142 95.7859 196.227C95.9313 196.313 96.0375 196.454 96.081 196.619C96.1244 196.785 96.1017 196.961 96.0178 197.11C95.9338 197.258 95.7956 197.366 95.6334 197.411L94.5154 197.717L95.9334 198.551C96.0777 198.637 96.1826 198.778 96.2253 198.943C96.268 199.108 96.2451 199.284 96.1615 199.431C96.0779 199.579 95.9405 199.687 95.7791 199.732C95.6178 199.776 95.4457 199.754 95.3004 199.67L93.8823 198.835L94.1811 199.976C94.2042 200.058 94.2109 200.145 94.2009 200.23C94.1909 200.315 94.1644 200.397 94.123 200.472C94.0815 200.546 94.0259 200.612 93.9594 200.664C93.8929 200.716 93.8169 200.755 93.7357 200.777C93.6545 200.799 93.5698 200.804 93.4866 200.793C93.4033 200.781 93.3232 200.753 93.2508 200.709C93.1784 200.666 93.1152 200.608 93.065 200.539C93.0147 200.47 92.9784 200.392 92.9581 200.309L92.3313 197.921L88.0265 195.385V200.458L89.7396 202.205C89.8585 202.326 89.9253 202.491 89.9254 202.662C89.9255 202.833 89.8589 202.998 89.7402 203.119C89.6215 203.24 89.4605 203.309 89.2925 203.309C89.1245 203.309 88.9633 203.241 88.8444 203.12L88.0253 202.284V203.954C88.0253 204.125 87.9586 204.29 87.8398 204.411C87.7211 204.532 87.5614 204.6 87.3935 204.6Z" fill="#5D6DFD"/>
</g>
<g filter="url(#filter6_i_404_330)">
<path d="M142.791 204.6C142.63 204.6 142.477 204.532 142.363 204.411C142.25 204.29 142.186 204.125 142.186 203.954V202.284L141.406 203.12C141.292 203.241 141.138 203.309 140.978 203.309C140.818 203.309 140.664 203.24 140.551 203.119C140.437 202.998 140.374 202.833 140.374 202.662C140.374 202.491 140.438 202.326 140.551 202.205L142.186 200.458V195.385L138.077 197.921L137.478 200.31C137.436 200.476 137.335 200.617 137.196 200.702C137.057 200.788 136.892 200.811 136.737 200.766C136.582 200.722 136.45 200.613 136.37 200.465C136.29 200.316 136.269 200.14 136.31 199.975L136.597 198.835L135.243 199.67C135.104 199.754 134.94 199.776 134.786 199.732C134.632 199.687 134.501 199.579 134.421 199.431C134.341 199.284 134.32 199.108 134.36 198.943C134.401 198.778 134.501 198.637 134.639 198.551L135.993 197.717L134.924 197.411C134.847 197.389 134.776 197.351 134.713 197.299C134.65 197.247 134.597 197.183 134.557 197.109C134.518 197.036 134.492 196.954 134.482 196.87C134.472 196.786 134.477 196.701 134.498 196.619C134.518 196.537 134.554 196.46 134.602 196.393C134.65 196.326 134.711 196.269 134.78 196.227C134.848 196.185 134.924 196.157 135.003 196.146C135.082 196.135 135.162 196.141 135.238 196.163L137.472 196.802L141.582 194.267L137.473 191.731L135.237 192.371C135.083 192.411 134.921 192.386 134.784 192.3C134.648 192.214 134.548 192.074 134.507 191.911C134.466 191.747 134.487 191.573 134.565 191.425C134.644 191.278 134.773 191.169 134.925 191.123L135.993 190.817L134.639 189.982C134.57 189.94 134.509 189.884 134.46 189.816C134.411 189.749 134.375 189.672 134.354 189.59C134.334 189.508 134.328 189.422 134.338 189.338C134.349 189.253 134.374 189.172 134.414 189.098C134.454 189.024 134.507 188.959 134.571 188.908C134.634 188.856 134.706 188.818 134.783 188.796C134.86 188.775 134.941 188.769 135.019 188.781C135.098 188.792 135.174 188.821 135.243 188.864L136.597 189.698L136.31 188.558C136.288 188.475 136.282 188.389 136.292 188.304C136.301 188.219 136.326 188.136 136.366 188.062C136.405 187.987 136.459 187.922 136.522 187.869C136.585 187.817 136.658 187.779 136.736 187.756C136.813 187.734 136.894 187.729 136.973 187.741C137.053 187.752 137.129 187.781 137.198 187.824C137.268 187.868 137.328 187.925 137.376 187.994C137.424 188.063 137.458 188.141 137.478 188.224L138.076 190.613L142.186 193.148V188.076L140.551 186.328C140.495 186.268 140.45 186.197 140.42 186.119C140.39 186.04 140.374 185.956 140.374 185.871C140.374 185.786 140.389 185.702 140.42 185.624C140.45 185.546 140.495 185.474 140.551 185.414C140.607 185.354 140.673 185.307 140.747 185.274C140.82 185.241 140.899 185.225 140.978 185.225C141.057 185.225 141.136 185.241 141.209 185.274C141.283 185.306 141.35 185.354 141.406 185.414L142.186 186.249V184.579C142.186 184.408 142.25 184.244 142.363 184.123C142.477 184.001 142.63 183.933 142.791 183.933C142.951 183.933 143.105 184.001 143.218 184.123C143.331 184.244 143.395 184.408 143.395 184.579V186.249L144.177 185.414C144.29 185.293 144.444 185.225 144.605 185.225C144.765 185.225 144.919 185.293 145.032 185.414C145.145 185.536 145.209 185.7 145.209 185.871C145.209 186.043 145.145 186.207 145.031 186.328L143.395 188.076V193.148L147.504 190.613L148.104 188.223C148.145 188.058 148.247 187.917 148.386 187.831C148.525 187.746 148.69 187.722 148.844 187.767C148.999 187.812 149.131 187.92 149.211 188.068C149.291 188.217 149.313 188.393 149.271 188.559L148.986 189.698L150.339 188.864C150.478 188.779 150.642 188.757 150.796 188.802C150.95 188.846 151.082 188.954 151.161 189.102C151.241 189.25 151.263 189.425 151.222 189.59C151.182 189.755 151.081 189.896 150.944 189.982L149.59 190.817L150.657 191.123C150.812 191.167 150.944 191.276 151.024 191.424C151.104 191.573 151.126 191.749 151.084 191.915C151.042 192.08 150.941 192.221 150.802 192.307C150.663 192.392 150.498 192.415 150.343 192.371L148.11 191.731L143.999 194.267L148.108 196.802L150.343 196.163C150.498 196.118 150.663 196.142 150.802 196.227C150.941 196.313 151.042 196.454 151.083 196.619C151.125 196.785 151.103 196.961 151.023 197.11C150.943 197.258 150.811 197.366 150.656 197.411L149.589 197.717L150.943 198.551C151.08 198.637 151.18 198.778 151.221 198.943C151.262 199.108 151.24 199.284 151.16 199.431C151.08 199.579 150.949 199.687 150.795 199.732C150.641 199.776 150.477 199.754 150.338 199.67L148.985 198.835L149.27 199.976C149.292 200.058 149.298 200.145 149.289 200.23C149.279 200.315 149.254 200.397 149.214 200.472C149.175 200.546 149.122 200.612 149.058 200.664C148.995 200.716 148.922 200.755 148.845 200.777C148.767 200.799 148.686 200.804 148.607 200.793C148.527 200.781 148.451 200.753 148.382 200.709C148.313 200.666 148.252 200.608 148.204 200.539C148.156 200.47 148.122 200.392 148.102 200.309L147.504 197.921L143.395 195.385V200.458L145.03 202.205C145.144 202.326 145.207 202.491 145.208 202.662C145.208 202.833 145.144 202.998 145.031 203.119C144.917 203.24 144.764 203.309 144.603 203.309C144.443 203.309 144.289 203.241 144.176 203.12L143.394 202.284V203.954C143.394 204.125 143.33 204.29 143.217 204.411C143.103 204.532 142.951 204.6 142.791 204.6Z" fill="#5D6DFD"/>
</g>
<g filter="url(#filter7_i_404_330)">
<path d="M114.703 221.133C114.527 221.133 114.358 221.065 114.233 220.944C114.108 220.823 114.038 220.659 114.038 220.487V218.817L113.18 219.653C113.055 219.774 112.886 219.842 112.709 219.842C112.533 219.842 112.364 219.774 112.239 219.652C112.114 219.531 112.044 219.367 112.045 219.195C112.045 219.024 112.115 218.86 112.24 218.738L114.038 216.991V211.918L109.518 214.454L108.859 216.844C108.813 217.009 108.702 217.15 108.549 217.236C108.396 217.321 108.214 217.344 108.044 217.3C107.874 217.255 107.729 217.147 107.641 216.998C107.553 216.85 107.529 216.673 107.575 216.508L107.89 215.369L106.401 216.203C106.248 216.287 106.068 216.309 105.898 216.265C105.729 216.22 105.584 216.112 105.497 215.964C105.409 215.817 105.385 215.641 105.43 215.476C105.475 215.312 105.585 215.171 105.736 215.084L107.225 214.25L106.05 213.944C105.966 213.922 105.887 213.884 105.817 213.832C105.748 213.78 105.69 213.716 105.647 213.642C105.603 213.569 105.575 213.488 105.563 213.404C105.552 213.319 105.558 213.234 105.581 213.152C105.603 213.07 105.642 212.993 105.696 212.926C105.749 212.859 105.815 212.802 105.891 212.76C105.967 212.718 106.05 212.69 106.137 212.679C106.223 212.668 106.311 212.674 106.396 212.696L108.852 213.335L113.374 210.8L108.854 208.264L106.394 208.904C106.225 208.945 106.046 208.919 105.896 208.833C105.746 208.747 105.636 208.607 105.591 208.444C105.546 208.28 105.569 208.106 105.655 207.958C105.741 207.811 105.884 207.702 106.051 207.656L107.225 207.35L105.736 206.515C105.66 206.473 105.593 206.417 105.539 206.35C105.486 206.282 105.446 206.205 105.423 206.123C105.4 206.041 105.394 205.955 105.406 205.871C105.417 205.786 105.445 205.705 105.489 205.631C105.533 205.557 105.591 205.493 105.661 205.441C105.731 205.389 105.81 205.351 105.895 205.33C105.98 205.308 106.068 205.303 106.155 205.314C106.242 205.326 106.325 205.354 106.401 205.397L107.89 206.231L107.575 205.091C107.551 205.008 107.544 204.922 107.554 204.837C107.565 204.752 107.592 204.67 107.636 204.595C107.679 204.52 107.738 204.455 107.808 204.403C107.877 204.35 107.957 204.312 108.043 204.29C108.128 204.268 108.217 204.262 108.304 204.274C108.392 204.285 108.476 204.314 108.552 204.357C108.628 204.401 108.694 204.459 108.747 204.527C108.8 204.596 108.838 204.674 108.859 204.757L109.517 207.146L114.038 209.681V204.609L112.24 202.861C112.178 202.801 112.129 202.73 112.095 202.652C112.062 202.573 112.045 202.489 112.045 202.405C112.045 202.32 112.062 202.236 112.095 202.157C112.128 202.079 112.177 202.007 112.239 201.947C112.301 201.887 112.374 201.84 112.455 201.807C112.535 201.775 112.622 201.758 112.709 201.758C112.797 201.758 112.883 201.774 112.964 201.807C113.044 201.839 113.118 201.887 113.18 201.947L114.038 202.783V201.112C114.038 200.941 114.108 200.777 114.233 200.656C114.358 200.535 114.527 200.467 114.703 200.467C114.879 200.467 115.049 200.535 115.173 200.656C115.298 200.777 115.368 200.941 115.368 201.112V202.783L116.228 201.947C116.353 201.826 116.522 201.758 116.698 201.758C116.875 201.758 117.044 201.826 117.169 201.947C117.293 202.069 117.363 202.233 117.363 202.405C117.363 202.576 117.293 202.74 117.168 202.861L115.368 204.609V209.681L119.888 207.146L120.547 204.756C120.593 204.591 120.705 204.45 120.858 204.364C121.01 204.279 121.192 204.256 121.362 204.3C121.533 204.345 121.678 204.453 121.766 204.602C121.854 204.75 121.877 204.927 121.832 205.092L121.518 206.231L123.007 205.397C123.159 205.313 123.34 205.29 123.509 205.335C123.679 205.38 123.823 205.488 123.911 205.635C123.999 205.783 124.023 205.958 123.978 206.123C123.933 206.288 123.823 206.429 123.671 206.515L122.183 207.35L123.356 207.656C123.527 207.701 123.672 207.809 123.76 207.957C123.848 208.106 123.872 208.282 123.826 208.448C123.78 208.613 123.668 208.754 123.515 208.84C123.363 208.925 123.181 208.948 123.011 208.904L120.554 208.264L116.033 210.8L120.553 213.335L123.011 212.696C123.181 212.652 123.363 212.675 123.515 212.761C123.668 212.846 123.779 212.987 123.825 213.153C123.871 213.318 123.847 213.494 123.759 213.643C123.671 213.791 123.525 213.899 123.355 213.944L122.181 214.25L123.67 215.084C123.822 215.171 123.932 215.312 123.977 215.476C124.021 215.641 123.997 215.817 123.91 215.964C123.822 216.112 123.678 216.22 123.508 216.265C123.339 216.309 123.158 216.287 123.005 216.203L121.516 215.369L121.83 216.509C121.854 216.591 121.861 216.678 121.851 216.763C121.84 216.848 121.813 216.93 121.769 217.005C121.726 217.079 121.667 217.145 121.597 217.197C121.528 217.25 121.448 217.288 121.363 217.31C121.277 217.332 121.188 217.338 121.101 217.326C121.014 217.314 120.929 217.286 120.853 217.242C120.777 217.199 120.711 217.141 120.658 217.072C120.606 217.004 120.567 216.925 120.546 216.842L119.888 214.454L115.368 211.918V216.991L117.167 218.738C117.291 218.86 117.362 219.024 117.362 219.195C117.362 219.367 117.292 219.531 117.167 219.652C117.043 219.774 116.874 219.842 116.697 219.842C116.521 219.842 116.352 219.774 116.227 219.653L115.367 218.817V220.487C115.367 220.659 115.297 220.823 115.172 220.944C115.047 221.065 114.879 221.133 114.703 221.133Z" fill="#5D6DFD"/>
</g>
<defs>
<filter id="filter0_f_404_330" x="20.8144" y="3.43311" width="217.132" height="227.535" filterUnits="userSpaceOnUse" color-interpolation-filters="sRGB">
<feFlood flood-opacity="0" result="BackgroundImageFix"/>
<feBlend mode="normal" in="SourceGraphic" in2="BackgroundImageFix" result="shape"/>
<feGaussianBlur stdDeviation="26.5" result="effect1_foregroundBlur_404_330"/>
</filter>
<filter id="filter1_i_404_330" x="69.2333" y="77.5" width="29.9667" height="28.6001" filterUnits="userSpaceOnUse" color-interpolation-filters="sRGB">
<feFlood flood-opacity="0" result="BackgroundImageFix"/>
<feBlend mode="normal" in="SourceGraphic" in2="BackgroundImageFix" result="shape"/>
<feColorMatrix in="SourceAlpha" type="matrix" values="0 0 0 0 0 0 0 0 0 0 0 0 0 0 0 0 0 0 127 0" result="hardAlpha"/>
<feOffset dy="11"/>
<feGaussianBlur stdDeviation="5"/>
<feComposite in2="hardAlpha" operator="arithmetic" k2="-1" k3="1"/>
<feColorMatrix type="matrix" values="0 0 0 0 1 0 0 0 0 1 0 0 0 0 1 0 0 0 1 0"/>
<feBlend mode="normal" in2="shape" result="effect1_innerShadow_404_330"/>
</filter>
<filter id="filter2_i_404_330" x="47.5333" y="96.1001" width="136.4" height="90.6001" filterUnits="userSpaceOnUse" color-interpolation-filters="sRGB">
<feFlood flood-opacity="0" result="BackgroundImageFix"/>
<feBlend mode="normal" in="SourceGraphic" in2="BackgroundImageFix" result="shape"/>
<feColorMatrix in="SourceAlpha" type="matrix" values="0 0 0 0 0 0 0 0 0 0 0 0 0 0 0 0 0 0 127 0" result="hardAlpha"/>
<feOffset dy="11"/>
<feGaussianBlur stdDeviation="5"/>
<feComposite in2="hardAlpha" operator="arithmetic" k2="-1" k3="1"/>
<feColorMatrix type="matrix" values="0 0 0 0 1 0 0 0 0 1 0 0 0 0 1 0 0 0 1 0"/>
<feBlend mode="normal" in2="shape" result="effect1_innerShadow_404_330"/>
</filter>
<filter id="filter3_i_404_330" x="108.5" y="62" width="90.9333" height="64.7666" filterUnits="userSpaceOnUse" color-interpolation-filters="sRGB">
<feFlood flood-opacity="0" result="BackgroundImageFix"/>
<feBlend mode="normal" in="SourceGraphic" in2="BackgroundImageFix" result="shape"/>
<feColorMatrix in="SourceAlpha" type="matrix" values="0 0 0 0 0 0 0 0 0 0 0 0 0 0 0 0 0 0 127 0" result="hardAlpha"/>
<feOffset dy="11"/>
<feGaussianBlur stdDeviation="5"/>
<feComposite in2="hardAlpha" operator="arithmetic" k2="-1" k3="1"/>
<feColorMatrix type="matrix" values="0 0 0 0 1 0 0 0 0 1 0 0 0 0 1 0 0 0 1 0"/>
<feBlend mode="normal" in2="shape" result="effect1_innerShadow_404_330"/>
</filter>
<filter id="filter4_i_404_330" x="78.0992" y="64.4392" width="50.1569" height="56.7188" filterUnits="userSpaceOnUse" color-interpolation-filters="sRGB">
<feFlood flood-opacity="0" result="BackgroundImageFix"/>
<feBlend mode="normal" in="SourceGraphic" in2="BackgroundImageFix" result="shape"/>
<feColorMatrix in="SourceAlpha" type="matrix" values="0 0 0 0 0 0 0 0 0 0 0 0 0 0 0 0 0 0 127 0" result="hardAlpha"/>
<feOffset dy="4"/>
<feGaussianBlur stdDeviation="4"/>
<feComposite in2="hardAlpha" operator="arithmetic" k2="-1" k3="1"/>
<feColorMatrix type="matrix" values="0 0 0 0 1 0 0 0 0 1 0 0 0 0 1 0 0 0 0.55 0"/>
<feBlend mode="normal" in2="shape" result="effect1_innerShadow_404_330"/>
</filter>
<filter id="filter5_i_404_330" x="78.5333" y="183.933" width="17.7143" height="23.6667" filterUnits="userSpaceOnUse" color-interpolation-filters="sRGB">
<feFlood flood-opacity="0" result="BackgroundImageFix"/>
<feBlend mode="normal" in="SourceGraphic" in2="BackgroundImageFix" result="shape"/>
<feColorMatrix in="SourceAlpha" type="matrix" values="0 0 0 0 0 0 0 0 0 0 0 0 0 0 0 0 0 0 127 0" result="hardAlpha"/>
<feOffset dy="9"/>
<feGaussianBlur stdDeviation="1.5"/>
<feComposite in2="hardAlpha" operator="arithmetic" k2="-1" k3="1"/>
<feColorMatrix type="matrix" values="0 0 0 0 1 0 0 0 0 1 0 0 0 0 1 0 0 0 0.21 0"/>
<feBlend mode="normal" in2="shape" result="effect1_innerShadow_404_330"/>
</filter>
<filter id="filter6_i_404_330" x="134.333" y="183.933" width="16.9091" height="23.6667" filterUnits="userSpaceOnUse" color-interpolation-filters="sRGB">
<feFlood flood-opacity="0" result="BackgroundImageFix"/>
<feBlend mode="normal" in="SourceGraphic" in2="BackgroundImageFix" result="shape"/>
<feColorMatrix in="SourceAlpha" type="matrix" values="0 0 0 0 0 0 0 0 0 0 0 0 0 0 0 0 0 0 127 0" result="hardAlpha"/>
<feOffset dy="9"/>
<feGaussianBlur stdDeviation="1.5"/>
<feComposite in2="hardAlpha" operator="arithmetic" k2="-1" k3="1"/>
<feColorMatrix type="matrix" values="0 0 0 0 1 0 0 0 0 1 0 0 0 0 1 0 0 0 0.21 0"/>
<feBlend mode="normal" in2="shape" result="effect1_innerShadow_404_330"/>
</filter>
<filter id="filter7_i_404_330" x="105.4" y="200.467" width="18.6" height="23.6667" filterUnits="userSpaceOnUse" color-interpolation-filters="sRGB">
<feFlood flood-opacity="0" result="BackgroundImageFix"/>
<feBlend mode="normal" in="SourceGraphic" in2="BackgroundImageFix" result="shape"/>
<feColorMatrix in="SourceAlpha" type="matrix" values="0 0 0 0 0 0 0 0 0 0 0 0 0 0 0 0 0 0 127 0" result="hardAlpha"/>
<feOffset dy="9"/>
<feGaussianBlur stdDeviation="1.5"/>
<feComposite in2="hardAlpha" operator="arithmetic" k2="-1" k3="1"/>
<feColorMatrix type="matrix" values="0 0 0 0 1 0 0 0 0 1 0 0 0 0 1 0 0 0 0.21 0"/>
<feBlend mode="normal" in2="shape" result="effect1_innerShadow_404_330"/>
</filter>
<linearGradient id="paint0_linear_404_330" x1="71.1394" y1="94.4393" x2="102.324" y2="72.1351" gradientUnits="userSpaceOnUse">
<stop stop-color="white" stop-opacity="0.65"/>
<stop offset="1" stop-color="white" stop-opacity="0.58"/>
</linearGradient>
<linearGradient id="paint1_linear_404_330" x1="56.209" y1="169.504" x2="193.358" y2="66.468" gradientUnits="userSpaceOnUse">
<stop stop-color="white" stop-opacity="0.65"/>
<stop offset="1" stop-color="white" stop-opacity="0.58"/>
</linearGradient>
<linearGradient id="paint2_linear_404_330" x1="193.65" y1="111.877" x2="100.967" y2="43.5611" gradientUnits="userSpaceOnUse">
<stop stop-color="white" stop-opacity="0.65"/>
<stop offset="1" stop-color="white" stop-opacity="0.58"/>
</linearGradient>
<linearGradient id="paint3_linear_404_330" x1="131.037" y1="55.2418" x2="110.759" y2="178.027" gradientUnits="userSpaceOnUse">
<stop stop-color="#FFEE94"/>
<stop offset="1" stop-color="#FF9900"/>
</linearGradient>
</defs>
</svg>
