<svg width="248" height="248" viewBox="0 0 248 248" fill="none" xmlns="http://www.w3.org/2000/svg">
<g filter="url(#filter0_f_303_724)">
<path d="M129.56 56.4331C115.567 75.4319 113.141 101.36 125.485 122.74C137.828 144.121 161.496 154.983 184.946 152.364C179.96 159.134 173.505 165.024 165.727 169.515C136.119 186.609 98.545 176.959 81.8027 147.96C65.0604 118.962 75.4899 81.5962 105.098 64.5021C112.876 60.0112 121.204 57.3663 129.56 56.4331Z" fill="#FFEE94" fill-opacity="0.5"/>
</g>
<g filter="url(#filter1_i_303_724)">
<path d="M128.256 64.4394C115.483 81.7821 113.268 105.45 124.536 124.967C135.804 144.483 157.408 154.399 178.814 152.009C174.263 158.188 168.371 163.565 161.27 167.664C134.243 183.268 99.9444 174.459 84.6615 147.988C69.3785 121.517 78.8989 87.409 105.926 71.805C113.026 67.7056 120.629 65.2912 128.256 64.4394Z" fill="url(#paint0_linear_303_724)"/>
</g>
<g filter="url(#filter2_di_303_724)">
<path d="M56.6714 80.519C54.3532 81.5485 53.4484 82.4184 52.6191 84.5713C51.9587 82.4849 51.1466 81.5543 48.5669 80.519C51.2206 79.6544 51.9408 78.6536 52.6191 76.4668C53.4527 78.4822 53.9675 79.5822 56.6714 80.519Z" fill="url(#paint1_linear_303_724)"/>
</g>
<g filter="url(#filter3_di_303_724)">
<path d="M82.0602 66.0618C76.1898 68.6686 73.8986 70.8716 71.7985 76.3235C70.126 71.04 68.0694 68.6834 61.5368 66.0618C68.2569 63.8723 70.0807 61.3377 71.7985 55.8001C73.9093 60.9038 75.213 63.6893 82.0602 66.0618Z" fill="url(#paint2_linear_303_724)"/>
</g>
<g filter="url(#filter4_di_303_724)">
<path d="M176.402 122.444C170.532 125.05 168.241 127.253 166.141 132.705C164.468 127.422 162.412 125.065 155.879 122.444C162.599 120.254 164.423 117.72 166.141 112.182C168.251 117.286 169.555 120.071 176.402 122.444Z" fill="url(#paint3_linear_303_724)"/>
</g>
<defs>
<filter id="filter0_f_303_724" x="20.8144" y="3.43311" width="217.132" height="227.535" filterUnits="userSpaceOnUse" color-interpolation-filters="sRGB">
<feFlood flood-opacity="0" result="BackgroundImageFix"/>
<feBlend mode="normal" in="SourceGraphic" in2="BackgroundImageFix" result="shape"/>
<feGaussianBlur stdDeviation="26.5" result="effect1_foregroundBlur_303_724"/>
</filter>
<filter id="filter1_i_303_724" x="77.3695" y="64.4395" width="101.445" height="114.941" filterUnits="userSpaceOnUse" color-interpolation-filters="sRGB">
<feFlood flood-opacity="0" result="BackgroundImageFix"/>
<feBlend mode="normal" in="SourceGraphic" in2="BackgroundImageFix" result="shape"/>
<feColorMatrix in="SourceAlpha" type="matrix" values="0 0 0 0 0 0 0 0 0 0 0 0 0 0 0 0 0 0 127 0" result="hardAlpha"/>
<feOffset dy="4"/>
<feGaussianBlur stdDeviation="4"/>
<feComposite in2="hardAlpha" operator="arithmetic" k2="-1" k3="1"/>
<feColorMatrix type="matrix" values="0 0 0 0 1 0 0 0 0 1 0 0 0 0 1 0 0 0 0.55 0"/>
<feBlend mode="normal" in2="shape" result="effect1_innerShadow_303_724"/>
</filter>
<filter id="filter2_di_303_724" x="39.7994" y="73.6993" width="25.6394" height="25.6394" filterUnits="userSpaceOnUse" color-interpolation-filters="sRGB">
<feFlood flood-opacity="0" result="BackgroundImageFix"/>
<feColorMatrix in="SourceAlpha" type="matrix" values="0 0 0 0 0 0 0 0 0 0 0 0 0 0 0 0 0 0 127 0" result="hardAlpha"/>
<feOffset dy="6"/>
<feGaussianBlur stdDeviation="4.38372"/>
<feColorMatrix type="matrix" values="0 0 0 0 0.278813 0 0 0 0 0.232917 0 0 0 0 0.5375 0 0 0 1 0"/>
<feBlend mode="normal" in2="BackgroundImageFix" result="effect1_dropShadow_303_724"/>
<feBlend mode="normal" in="SourceGraphic" in2="effect1_dropShadow_303_724" result="shape"/>
<feColorMatrix in="SourceAlpha" type="matrix" values="0 0 0 0 0 0 0 0 0 0 0 0 0 0 0 0 0 0 127 0" result="hardAlpha"/>
<feOffset dy="4"/>
<feGaussianBlur stdDeviation="2"/>
<feComposite in2="hardAlpha" operator="arithmetic" k2="-1" k3="1"/>
<feColorMatrix type="matrix" values="0 0 0 0 1 0 0 0 0 1 0 0 0 0 1 0 0 0 0.44 0"/>
<feBlend mode="normal" in2="shape" result="effect2_innerShadow_303_724"/>
</filter>
<filter id="filter3_di_303_724" x="52.7693" y="53.0326" width="38.0583" height="38.0583" filterUnits="userSpaceOnUse" color-interpolation-filters="sRGB">
<feFlood flood-opacity="0" result="BackgroundImageFix"/>
<feColorMatrix in="SourceAlpha" type="matrix" values="0 0 0 0 0 0 0 0 0 0 0 0 0 0 0 0 0 0 127 0" result="hardAlpha"/>
<feOffset dy="6"/>
<feGaussianBlur stdDeviation="4.38372"/>
<feColorMatrix type="matrix" values="0 0 0 0 0.278813 0 0 0 0 0.232917 0 0 0 0 0.5375 0 0 0 1 0"/>
<feBlend mode="normal" in2="BackgroundImageFix" result="effect1_dropShadow_303_724"/>
<feBlend mode="normal" in="SourceGraphic" in2="effect1_dropShadow_303_724" result="shape"/>
<feColorMatrix in="SourceAlpha" type="matrix" values="0 0 0 0 0 0 0 0 0 0 0 0 0 0 0 0 0 0 127 0" result="hardAlpha"/>
<feOffset dy="4"/>
<feGaussianBlur stdDeviation="2"/>
<feComposite in2="hardAlpha" operator="arithmetic" k2="-1" k3="1"/>
<feColorMatrix type="matrix" values="0 0 0 0 1 0 0 0 0 1 0 0 0 0 1 0 0 0 0.44 0"/>
<feBlend mode="normal" in2="shape" result="effect2_innerShadow_303_724"/>
</filter>
<filter id="filter4_di_303_724" x="147.111" y="109.414" width="38.0583" height="38.0583" filterUnits="userSpaceOnUse" color-interpolation-filters="sRGB">
<feFlood flood-opacity="0" result="BackgroundImageFix"/>
<feColorMatrix in="SourceAlpha" type="matrix" values="0 0 0 0 0 0 0 0 0 0 0 0 0 0 0 0 0 0 127 0" result="hardAlpha"/>
<feOffset dy="6"/>
<feGaussianBlur stdDeviation="4.38372"/>
<feColorMatrix type="matrix" values="0 0 0 0 0.278813 0 0 0 0 0.232917 0 0 0 0 0.5375 0 0 0 1 0"/>
<feBlend mode="normal" in2="BackgroundImageFix" result="effect1_dropShadow_303_724"/>
<feBlend mode="normal" in="SourceGraphic" in2="effect1_dropShadow_303_724" result="shape"/>
<feColorMatrix in="SourceAlpha" type="matrix" values="0 0 0 0 0 0 0 0 0 0 0 0 0 0 0 0 0 0 127 0" result="hardAlpha"/>
<feOffset dy="4"/>
<feGaussianBlur stdDeviation="2"/>
<feComposite in2="hardAlpha" operator="arithmetic" k2="-1" k3="1"/>
<feColorMatrix type="matrix" values="0 0 0 0 1 0 0 0 0 1 0 0 0 0 1 0 0 0 0.44 0"/>
<feBlend mode="normal" in2="shape" result="effect2_innerShadow_303_724"/>
</filter>
<linearGradient id="paint0_linear_303_724" x1="131.038" y1="55.2419" x2="110.759" y2="178.027" gradientUnits="userSpaceOnUse">
<stop stop-color="#FFEE94"/>
<stop offset="1" stop-color="#FF9900"/>
</linearGradient>
<linearGradient id="paint1_linear_303_724" x1="51.4469" y1="84.951" x2="55.2609" y2="77.79" gradientUnits="userSpaceOnUse">
<stop stop-color="#FF9900"/>
<stop offset="1" stop-color="#FFEE94"/>
</linearGradient>
<linearGradient id="paint2_linear_303_724" x1="68.8298" y1="77.2851" x2="78.4882" y2="59.1509" gradientUnits="userSpaceOnUse">
<stop stop-color="#FF9900"/>
<stop offset="1" stop-color="#FFEE94"/>
</linearGradient>
<linearGradient id="paint3_linear_303_724" x1="163.172" y1="133.667" x2="172.83" y2="115.533" gradientUnits="userSpaceOnUse">
<stop stop-color="#FF9900"/>
<stop offset="1" stop-color="#FFEE94"/>
</linearGradient>
</defs>
</svg>
