<svg width="261" height="262" viewBox="0 0 261 262" fill="none" xmlns="http://www.w3.org/2000/svg">
<g opacity="0.4" filter="url(#filter0_f_303_728)">
<path d="M142.56 56.4331C128.567 75.4319 126.141 101.36 138.485 122.74C150.828 144.121 174.496 154.983 197.946 152.364C192.96 159.134 186.505 165.024 178.727 169.515C149.119 186.609 111.545 176.959 94.8027 147.96C78.0604 118.962 88.4899 81.5962 118.098 64.5021C125.876 60.0112 134.204 57.3663 142.56 56.4331Z" fill="#FFEE94" fill-opacity="0.5"/>
</g>
<g filter="url(#filter1_i_303_728)">
<path d="M117.353 194.267C112.059 201.212 104.647 215.102 117.353 215.102C130.06 215.102 122.647 201.212 117.353 194.267Z" fill="#507CB1"/>
</g>
<g filter="url(#filter2_i_303_728)">
<path d="M90.2826 180.833C84.9882 187.778 77.5761 201.668 90.2826 201.668C102.989 201.668 95.577 187.778 90.2826 180.833Z" fill="#507CB1"/>
</g>
<g filter="url(#filter3_f_303_728)">
<rect x="77.7241" y="169.354" width="102.05" height="14.8823" rx="7.44114" fill="#FFED8D" fill-opacity="0.5"/>
</g>
<g filter="url(#filter4_i_303_728)">
<path d="M174.798 188.945H163.087L167.847 176.7H147.674L139.665 198.072H155.475L148.156 227.333L174.798 188.945Z" fill="url(#paint0_linear_303_728)"/>
</g>
<g filter="url(#filter5_i_303_728)">
<path d="M108.74 86.9803C108.817 86.5259 108.857 86.0585 108.857 85.5814C108.857 81.1182 105.364 77.5 101.055 77.5C97.8524 77.5 95.1002 79.4996 93.8988 82.3596C92.9254 81.489 91.6624 80.9634 90.2822 80.9634C87.2047 80.9634 84.7099 83.5766 84.7099 86.8C84.7099 86.9795 84.7177 87.1571 84.7328 87.3325C83.2526 88.0835 82.2333 89.6595 82.2333 91.4821C82.2333 94.0325 84.2292 96.1 86.6912 96.1H107.742C110.204 96.1 112.2 94.0325 112.2 91.4821C112.2 89.2871 110.722 87.4498 108.74 86.9803Z" fill="url(#paint1_linear_303_728)"/>
</g>
<g filter="url(#filter6_i_303_728)">
<path d="M181.185 137.181C181.534 135.212 181.715 133.187 181.715 131.119C181.715 111.779 165.817 96.1001 146.206 96.1001C131.627 96.1001 119.1 104.765 113.631 117.158C109.201 113.386 103.452 111.108 97.1697 111.108C83.1618 111.108 71.8061 122.432 71.8061 136.4C71.8061 137.178 71.8413 137.948 71.9102 138.707C65.1726 141.962 60.5333 148.791 60.5333 156.689C60.5333 167.741 69.6179 176.7 80.8243 176.7H176.642C187.849 176.7 196.933 167.741 196.933 156.689C196.933 147.177 190.204 139.216 181.185 137.181Z" fill="url(#paint2_linear_303_728)"/>
</g>
<g filter="url(#filter7_i_303_728)">
<path d="M202.288 85.7952C202.288 87.1999 202.167 88.5763 201.934 89.9142C207.947 91.2965 212.433 96.7064 212.433 103.169C212.433 110.679 206.377 116.767 198.906 116.767H178.605C173.048 104.583 160.631 96.1 146.206 96.1C136.724 96.1 128.11 99.7654 121.741 105.738C121.583 104.906 121.5 104.048 121.5 103.169C121.5 97.803 124.593 93.1626 129.085 90.9511C129.039 90.4348 129.015 89.9118 129.015 89.3833C129.015 79.8921 136.586 72.1979 145.924 72.1979C150.112 72.1979 153.945 73.7455 156.899 76.3087C160.544 67.8878 168.896 62 178.615 62C191.689 62 202.288 72.6535 202.288 85.7952Z" fill="url(#paint3_linear_303_728)"/>
</g>
<g filter="url(#filter8_i_303_728)">
<path d="M134.308 76.8953C136.075 72.5053 138.402 68.3144 141.256 64.4392C133.629 65.2911 126.026 67.7055 118.926 71.8049C103.471 80.7277 93.7408 95.7011 91.0992 111.837C93.0442 111.361 95.0773 111.108 97.1697 111.108C103.452 111.108 109.201 113.386 113.631 117.158C115.543 112.825 118.318 108.948 121.741 105.738C121.583 104.906 121.5 104.047 121.5 103.169C121.5 97.8029 124.593 93.1626 129.085 90.9511C129.039 90.4347 129.015 89.9118 129.015 89.3833C129.015 84.4643 131.049 80.028 134.308 76.8953Z" fill="url(#paint4_linear_303_728)"/>
</g>
<defs>
<filter id="filter0_f_303_728" x="33.8144" y="3.43311" width="217.132" height="227.535" filterUnits="userSpaceOnUse" color-interpolation-filters="sRGB">
<feFlood flood-opacity="0" result="BackgroundImageFix"/>
<feBlend mode="normal" in="SourceGraphic" in2="BackgroundImageFix" result="shape"/>
<feGaussianBlur stdDeviation="26.5" result="effect1_foregroundBlur_303_728"/>
</filter>
<filter id="filter1_i_303_728" x="110.337" y="194.267" width="14.0319" height="23.8352" filterUnits="userSpaceOnUse" color-interpolation-filters="sRGB">
<feFlood flood-opacity="0" result="BackgroundImageFix"/>
<feBlend mode="normal" in="SourceGraphic" in2="BackgroundImageFix" result="shape"/>
<feColorMatrix in="SourceAlpha" type="matrix" values="0 0 0 0 0 0 0 0 0 0 0 0 0 0 0 0 0 0 127 0" result="hardAlpha"/>
<feOffset dy="9"/>
<feGaussianBlur stdDeviation="1.5"/>
<feComposite in2="hardAlpha" operator="arithmetic" k2="-1" k3="1"/>
<feColorMatrix type="matrix" values="0 0 0 0 1 0 0 0 0 1 0 0 0 0 1 0 0 0 0.21 0"/>
<feBlend mode="normal" in2="shape" result="effect1_innerShadow_303_728"/>
</filter>
<filter id="filter2_i_303_728" x="83.2667" y="180.833" width="14.0319" height="23.8352" filterUnits="userSpaceOnUse" color-interpolation-filters="sRGB">
<feFlood flood-opacity="0" result="BackgroundImageFix"/>
<feBlend mode="normal" in="SourceGraphic" in2="BackgroundImageFix" result="shape"/>
<feColorMatrix in="SourceAlpha" type="matrix" values="0 0 0 0 0 0 0 0 0 0 0 0 0 0 0 0 0 0 127 0" result="hardAlpha"/>
<feOffset dy="9"/>
<feGaussianBlur stdDeviation="1.5"/>
<feComposite in2="hardAlpha" operator="arithmetic" k2="-1" k3="1"/>
<feColorMatrix type="matrix" values="0 0 0 0 1 0 0 0 0 1 0 0 0 0 1 0 0 0 0.21 0"/>
<feBlend mode="normal" in2="shape" result="effect1_innerShadow_303_728"/>
</filter>
<filter id="filter3_f_303_728" x="0.724121" y="92.3542" width="256.05" height="168.882" filterUnits="userSpaceOnUse" color-interpolation-filters="sRGB">
<feFlood flood-opacity="0" result="BackgroundImageFix"/>
<feBlend mode="normal" in="SourceGraphic" in2="BackgroundImageFix" result="shape"/>
<feGaussianBlur stdDeviation="38.5" result="effect1_foregroundBlur_303_728"/>
</filter>
<filter id="filter4_i_303_728" x="137.665" y="176.7" width="37.1334" height="50.6333" filterUnits="userSpaceOnUse" color-interpolation-filters="sRGB">
<feFlood flood-opacity="0" result="BackgroundImageFix"/>
<feBlend mode="normal" in="SourceGraphic" in2="BackgroundImageFix" result="shape"/>
<feColorMatrix in="SourceAlpha" type="matrix" values="0 0 0 0 0 0 0 0 0 0 0 0 0 0 0 0 0 0 127 0" result="hardAlpha"/>
<feOffset dx="-2"/>
<feGaussianBlur stdDeviation="4.5"/>
<feComposite in2="hardAlpha" operator="arithmetic" k2="-1" k3="1"/>
<feColorMatrix type="matrix" values="0 0 0 0 1 0 0 0 0 1 0 0 0 0 1 0 0 0 0.5 0"/>
<feBlend mode="normal" in2="shape" result="effect1_innerShadow_303_728"/>
</filter>
<filter id="filter5_i_303_728" x="82.2333" y="77.5" width="29.9667" height="28.6001" filterUnits="userSpaceOnUse" color-interpolation-filters="sRGB">
<feFlood flood-opacity="0" result="BackgroundImageFix"/>
<feBlend mode="normal" in="SourceGraphic" in2="BackgroundImageFix" result="shape"/>
<feColorMatrix in="SourceAlpha" type="matrix" values="0 0 0 0 0 0 0 0 0 0 0 0 0 0 0 0 0 0 127 0" result="hardAlpha"/>
<feOffset dy="11"/>
<feGaussianBlur stdDeviation="5"/>
<feComposite in2="hardAlpha" operator="arithmetic" k2="-1" k3="1"/>
<feColorMatrix type="matrix" values="0 0 0 0 1 0 0 0 0 1 0 0 0 0 1 0 0 0 1 0"/>
<feBlend mode="normal" in2="shape" result="effect1_innerShadow_303_728"/>
</filter>
<filter id="filter6_i_303_728" x="60.5333" y="96.1001" width="136.4" height="90.6001" filterUnits="userSpaceOnUse" color-interpolation-filters="sRGB">
<feFlood flood-opacity="0" result="BackgroundImageFix"/>
<feBlend mode="normal" in="SourceGraphic" in2="BackgroundImageFix" result="shape"/>
<feColorMatrix in="SourceAlpha" type="matrix" values="0 0 0 0 0 0 0 0 0 0 0 0 0 0 0 0 0 0 127 0" result="hardAlpha"/>
<feOffset dy="11"/>
<feGaussianBlur stdDeviation="5"/>
<feComposite in2="hardAlpha" operator="arithmetic" k2="-1" k3="1"/>
<feColorMatrix type="matrix" values="0 0 0 0 1 0 0 0 0 1 0 0 0 0 1 0 0 0 1 0"/>
<feBlend mode="normal" in2="shape" result="effect1_innerShadow_303_728"/>
</filter>
<filter id="filter7_i_303_728" x="121.5" y="62" width="90.9333" height="64.7666" filterUnits="userSpaceOnUse" color-interpolation-filters="sRGB">
<feFlood flood-opacity="0" result="BackgroundImageFix"/>
<feBlend mode="normal" in="SourceGraphic" in2="BackgroundImageFix" result="shape"/>
<feColorMatrix in="SourceAlpha" type="matrix" values="0 0 0 0 0 0 0 0 0 0 0 0 0 0 0 0 0 0 127 0" result="hardAlpha"/>
<feOffset dy="11"/>
<feGaussianBlur stdDeviation="5"/>
<feComposite in2="hardAlpha" operator="arithmetic" k2="-1" k3="1"/>
<feColorMatrix type="matrix" values="0 0 0 0 1 0 0 0 0 1 0 0 0 0 1 0 0 0 1 0"/>
<feBlend mode="normal" in2="shape" result="effect1_innerShadow_303_728"/>
</filter>
<filter id="filter8_i_303_728" x="91.0992" y="64.4392" width="50.1569" height="56.7188" filterUnits="userSpaceOnUse" color-interpolation-filters="sRGB">
<feFlood flood-opacity="0" result="BackgroundImageFix"/>
<feBlend mode="normal" in="SourceGraphic" in2="BackgroundImageFix" result="shape"/>
<feColorMatrix in="SourceAlpha" type="matrix" values="0 0 0 0 0 0 0 0 0 0 0 0 0 0 0 0 0 0 127 0" result="hardAlpha"/>
<feOffset dy="4"/>
<feGaussianBlur stdDeviation="4"/>
<feComposite in2="hardAlpha" operator="arithmetic" k2="-1" k3="1"/>
<feColorMatrix type="matrix" values="0 0 0 0 1 0 0 0 0 1 0 0 0 0 1 0 0 0 0.55 0"/>
<feBlend mode="normal" in2="shape" result="effect1_innerShadow_303_728"/>
</filter>
<linearGradient id="paint0_linear_303_728" x1="152.889" y1="222.257" x2="186.82" y2="175.06" gradientUnits="userSpaceOnUse">
<stop stop-color="#FF9900"/>
<stop offset="1" stop-color="#FFEE94"/>
</linearGradient>
<linearGradient id="paint1_linear_303_728" x1="84.1394" y1="94.4393" x2="115.324" y2="72.1351" gradientUnits="userSpaceOnUse">
<stop stop-color="white" stop-opacity="0.65"/>
<stop offset="1" stop-color="white" stop-opacity="0.58"/>
</linearGradient>
<linearGradient id="paint2_linear_303_728" x1="69.209" y1="169.504" x2="206.358" y2="66.468" gradientUnits="userSpaceOnUse">
<stop stop-color="white" stop-opacity="0.65"/>
<stop offset="1" stop-color="white" stop-opacity="0.58"/>
</linearGradient>
<linearGradient id="paint3_linear_303_728" x1="206.65" y1="111.877" x2="113.967" y2="43.5611" gradientUnits="userSpaceOnUse">
<stop stop-color="white" stop-opacity="0.65"/>
<stop offset="1" stop-color="white" stop-opacity="0.58"/>
</linearGradient>
<linearGradient id="paint4_linear_303_728" x1="144.037" y1="55.2418" x2="123.759" y2="178.027" gradientUnits="userSpaceOnUse">
<stop stop-color="#FFEE94"/>
<stop offset="1" stop-color="#FF9900"/>
</linearGradient>
</defs>
</svg>
