<svg width="85.000000" height="40.000000" viewBox="0 0 85 40" fill="none" xmlns="http://www.w3.org/2000/svg" xmlns:xlink="http://www.w3.org/1999/xlink">
	<desc>
			Created with Pixso.
	</desc>
	<defs/>
	<path id="Logo" d="M24.21 4.1C23.89 3.6 23.41 3.59 22.87 3.57C22.81 3.57 22.75 3.57 22.69 3.56C22.64 3.56 22.59 3.56 22.53 3.56C22.31 3.57 22.06 3.57 21.93 3.39C21.78 3.17 21.79 2.76 21.81 2.42C21.81 2.31 21.81 2.21 21.81 2.13C21.79 1.34 21.75 0.5 21.44 0.22C21.21 0.01 20.52 0.04 19.89 0.06C19.68 0.07 19.48 0.08 19.3 0.08L5.79 0.08C5.52 0.08 5.23 0.06 4.95 0.04C4.41 -0.01 3.88 -0.05 3.51 0.08C2.96 0.27 2.93 1.24 2.89 2.16L2.89 2.21C2.86 2.97 2.67 3.55 2.05 3.49C1.33 3.43 0.6 3.41 0.28 4.06C-0.11 4.84 -0.03 5.65 0.11 7.1C0.13 7.31 0.15 7.53 0.18 7.77L24.42 7.77C24.44 7.59 24.45 7.42 24.46 7.26C24.58 5.95 24.68 4.81 24.21 4.1Z" fill="#8047F8" fill-opacity="1.000000" fill-rule="nonzero"/>
	<path id="Logo" d="M2.06 9.21C2.44 14.33 2.82 19.47 3.19 24.6L3.19 24.6C3.4 27.38 3.6 30.17 3.8 32.96L4.58 32.96C4.63 33.39 4.69 33.93 4.75 34.5C4.88 35.65 5.03 36.92 5.15 37.7L5.23 37.7C6.02 37.41 11.47 35.09 11.47 25.82C11.47 25.79 11.47 25.76 11.47 25.74L10.13 25.74C10.06 25.74 10 25.72 9.95 25.68C9.89 25.64 9.86 25.58 9.84 25.52C9.71 25.19 9.6 24.86 9.52 24.52C8.73 24.97 8.1 25.65 7.73 26.47C7.37 25.63 7.32 24.69 7.6 23.82C7.87 22.95 8.44 22.2 9.21 21.7C9.22 19 10.24 16.39 12.06 14.38L12.09 14.35C12.14 14.3 12.21 14.28 12.28 14.28C12.32 14.28 12.36 14.29 12.4 14.3C12.44 14.32 12.47 14.35 12.5 14.38C14.34 16.39 15.35 19.03 15.32 21.75C16.11 22.23 16.69 22.98 16.96 23.86C17.24 24.73 17.18 25.68 16.8 26.51C16.43 25.69 15.8 25.01 15 24.56C14.95 24.89 14.86 25.21 14.74 25.52C14.69 25.65 14.6 25.74 14.52 25.74L13.08 25.74C13.08 25.75 13.08 25.77 13.09 25.79L13.09 25.79L13.09 25.8C13.09 25.81 13.09 25.82 13.09 25.84C13.11 35.37 18.9 37.54 19.39 37.7L19.55 37.7C19.59 36.95 19.73 35.92 19.87 34.91C19.96 34.21 20.05 33.53 20.11 32.96L20.89 32.96C21.14 29.45 21.4 25.95 21.66 22.45L21.66 22.45L21.66 22.45C21.99 17.97 22.32 13.5 22.63 9L2.11 9C2.06 9.02 2.06 9.11 2.06 9.21ZM12.28 14.28L12.28 14.28L12.28 14.28L12.28 14.28Z" fill="#8047F8" fill-opacity="1.000000" fill-rule="evenodd"/>
	<path id="Logo" d="M31.3 5.69C31.3 4.43 31.74 3.45 32.61 2.75C33.5 2.04 34.83 1.68 36.6 1.68C37.78 1.68 38.78 1.8 39.6 2.02L39.6 5.29C38.71 5.02 37.83 4.89 36.96 4.89C36.11 4.89 35.55 4.99 35.3 5.2C35.04 5.38 34.92 5.67 34.92 6.05L34.92 14.02C34.92 14.78 35.51 15.16 36.7 15.16C37.9 15.16 38.9 15.04 39.67 14.8L39.67 18C38.82 18.24 37.78 18.36 36.56 18.36C34.78 18.36 33.46 18.01 32.59 17.32C31.73 16.62 31.3 15.64 31.3 14.37L31.3 5.69Z" fill="#403937" fill-opacity="1.000000" fill-rule="nonzero"/>
	<path id="Logo" d="M46.62 7.95C46.62 7.35 46.28 7.05 45.62 7.05C44.95 7.05 44.62 7.35 44.62 7.95L44.62 14.54C44.62 15.14 44.95 15.44 45.62 15.44C46.28 15.44 46.62 15.14 46.62 14.54L46.62 7.95ZM41.1 7.83C41.1 6.63 41.47 5.69 42.22 5.03C42.98 4.35 44.11 4.01 45.62 4.01C47.12 4.01 48.25 4.35 48.99 5.03C49.75 5.69 50.13 6.63 50.13 7.83L50.13 14.66C50.13 15.86 49.75 16.8 48.99 17.48C48.25 18.15 47.12 18.48 45.62 18.48C44.11 18.48 42.98 18.15 42.22 17.48C41.47 16.8 41.1 15.86 41.1 14.66L41.1 7.83Z" fill="#403937" fill-opacity="1.000000" fill-rule="nonzero"/>
	<path id="Logo" d="M52.44 4.08C52.44 1.41 53.85 0.07 56.68 0.07C57.04 0.07 57.48 0.11 57.98 0.19L57.98 2.94C57.73 2.91 57.49 2.89 57.27 2.89C56.46 2.89 56.06 3.27 56.06 4.03L56.06 4.25L57.98 4.25L57.98 7.05L56.06 7.05L56.06 18.24L52.44 18.24L52.44 7.05L51.09 7.05L51.09 4.25L52.44 4.25L52.44 4.08Z" fill="#403937" fill-opacity="1.000000" fill-rule="nonzero"/>
	<path id="Logo" d="M59.46 4.08C59.46 1.41 60.87 0.07 63.69 0.07C64.05 0.07 64.49 0.11 64.99 0.19L64.99 2.94C64.74 2.91 64.5 2.89 64.28 2.89C63.47 2.89 63.07 3.27 63.07 4.03L63.07 4.25L64.99 4.25L64.99 7.05L63.07 7.05L63.07 18.24L59.46 18.24L59.46 7.05L58.1 7.05L58.1 4.25L59.46 4.25L59.46 4.08Z" fill="#403937" fill-opacity="1.000000" fill-rule="nonzero"/>
	<path id="Logo" d="M65.82 14.26L65.82 7.83C65.82 6.63 66.2 5.69 66.94 5.03C67.69 4.35 68.81 4.01 70.32 4.01C73.22 4.01 74.67 5.28 74.67 7.83L74.67 12.64L69.27 12.64L69.27 13.97C69.27 14.45 69.4 14.79 69.65 14.99C69.92 15.18 70.5 15.28 71.39 15.28C72.29 15.28 73.27 15.12 74.33 14.8L74.33 17.93C73.23 18.23 72.04 18.38 70.77 18.38C67.47 18.38 65.82 17.01 65.82 14.26ZM69.27 9.92L71.36 9.92L71.36 7.88C71.36 7.27 71.01 6.97 70.32 6.97C69.62 6.97 69.27 7.27 69.27 7.88L69.27 9.92Z" fill="#403937" fill-opacity="1.000000" fill-rule="nonzero"/>
	<path id="Logo" d="M76.08 14.26L76.08 7.83C76.08 6.63 76.46 5.69 77.2 5.03C77.95 4.35 79.07 4.01 80.58 4.01C83.48 4.01 84.93 5.28 84.93 7.83L84.93 12.64L79.53 12.64L79.53 13.97C79.53 14.45 79.66 14.79 79.91 14.99C80.18 15.18 80.76 15.28 81.65 15.28C82.55 15.28 83.53 15.12 84.6 14.8L84.6 17.93C83.49 18.23 82.3 18.38 81.03 18.38C77.73 18.38 76.08 17.01 76.08 14.26ZM79.53 9.92L81.62 9.92L81.62 7.88C81.62 7.27 81.28 6.97 80.58 6.97C79.88 6.97 79.53 7.27 79.53 7.88L79.53 9.92Z" fill="#403937" fill-opacity="1.000000" fill-rule="nonzero"/>
	<path id="Logo" d="M37.03 26.97C37.03 25.81 36.41 25.22 35.17 25.22L33.2 25.22L33.2 35.87L35.17 35.87C36.41 35.87 37.03 35.27 37.03 34.08L37.03 26.97ZM31.82 24.02L35.25 24.02C36.29 24.02 37.08 24.28 37.61 24.81C38.14 25.35 38.41 26.06 38.41 26.96L38.41 34.12C38.41 35.04 38.15 35.77 37.63 36.3C37.11 36.83 36.33 37.1 35.29 37.1L31.82 37.1L31.82 24.02Z" fill="#403937" fill-opacity="1.000000" fill-rule="nonzero"/>
	<path id="Logo" d="M40.69 34.27L40.69 28.86C40.69 27.94 40.95 27.21 41.47 26.66C42 26.11 42.8 25.83 43.87 25.83C44.94 25.83 45.72 26.11 46.23 26.66C46.75 27.21 47.01 27.94 47.01 28.86L47.01 32.25L42.05 32.25L42.05 34.21C42.05 34.8 42.24 35.23 42.6 35.52C42.97 35.8 43.53 35.95 44.3 35.95C45.07 35.95 45.86 35.83 46.68 35.6L46.68 36.88C46.03 37.09 45.25 37.19 44.36 37.19C41.91 37.19 40.69 36.22 40.69 34.27ZM42.05 31.1L45.68 31.1L45.68 28.86C45.68 27.64 45.08 27.03 43.87 27.03C42.66 27.03 42.05 27.64 42.05 28.86L42.05 31.1Z" fill="#403937" fill-opacity="1.000000" fill-rule="nonzero"/>
	<path id="Logo" d="M49.38 23.08L50.76 23.08L50.76 37.1L49.38 37.1L49.38 23.08Z" fill="#403937" fill-opacity="1.000000" fill-rule="nonzero"/>
	<path id="Logo" d="M54.14 24.78C53.58 24.78 53.3 24.48 53.3 23.88C53.3 23.28 53.58 22.98 54.14 22.98C54.71 22.98 55 23.28 55 23.88C55 24.48 54.71 24.78 54.14 24.78ZM53.46 26.1L54.84 26.1L54.84 37.1L53.46 37.1L53.46 26.1Z" fill="#403937" fill-opacity="1.000000" fill-rule="nonzero"/>
	<path id="Logo" d="M61.98 26.02L63.38 26.02L60.93 37.1L58.98 37.1L56.52 26.02L57.94 26.02L59.01 31.1L59.97 36.12C60.36 33.97 61.03 30.6 61.98 26.02Z" fill="#403937" fill-opacity="1.000000" fill-rule="nonzero"/>
	<path id="Logo" d="M64.86 34.27L64.86 28.86C64.86 27.94 65.12 27.21 65.64 26.66C66.17 26.11 66.97 25.83 68.04 25.83C69.11 25.83 69.89 26.11 70.4 26.66C70.92 27.21 71.18 27.94 71.18 28.86L71.18 32.25L66.23 32.25L66.23 34.21C66.23 34.8 66.41 35.23 66.77 35.52C67.14 35.8 67.7 35.95 68.47 35.95C69.24 35.95 70.03 35.83 70.85 35.6L70.85 36.88C70.2 37.09 69.43 37.19 68.53 37.19C66.08 37.19 64.86 36.22 64.86 34.27ZM66.23 31.1L69.85 31.1L69.85 28.86C69.85 27.64 69.25 27.03 68.04 27.03C66.83 27.03 66.23 27.64 66.23 28.86L66.23 31.1Z" fill="#403937" fill-opacity="1.000000" fill-rule="nonzero"/>
	<path id="Logo" d="M77.14 25.96L77.63 25.96L77.63 27.29L76.97 27.29C76.5 27.29 76.07 27.41 75.7 27.66C75.58 27.73 75.33 27.91 74.94 28.18L74.94 37.1L73.55 37.1L73.55 26.02L74.88 26.02L74.88 26.86C74.92 26.83 75.01 26.76 75.17 26.64C75.34 26.53 75.44 26.46 75.46 26.45C75.5 26.42 75.59 26.37 75.72 26.29C75.86 26.22 75.96 26.17 76.03 26.16C76.11 26.13 76.21 26.1 76.34 26.06C76.54 26 76.8 25.96 77.14 25.96Z" fill="#403937" fill-opacity="1.000000" fill-rule="nonzero"/>
	<path id="Logo" d="M83.56 26.02L84.95 26.02L81.9 40L80.58 40L81.18 37.1L80.5 37.1L78.08 26.02L79.49 26.02L80.66 31.53L81.51 36.12C81.77 34.59 82.06 33.06 82.37 31.53L83.56 26.02Z" fill="#403937" fill-opacity="1.000000" fill-rule="nonzero"/>
</svg>
