<svg width="22.000000" height="22.000000" viewBox="0 0 22 22" fill="none" xmlns="http://www.w3.org/2000/svg" xmlns:xlink="http://www.w3.org/1999/xlink">
	<desc>
			Created with Pixso.
	</desc>
	<defs>
		<clipPath id="clip220_978">
			<rect id="Icon" width="22.000000" height="22.000000" fill="white" fill-opacity="0"/>
		</clipPath>
	</defs>
	<g clip-path="url(#clip220_978)">
		<path id="Vector" d="M11 1.37C8.99 1.37 7.07 2.17 5.65 3.59C4.23 5.01 3.43 6.93 3.43 8.93C3.43 15.4 10.31 20.29 10.6 20.5C10.72 20.58 10.85 20.62 11 20.62C11.14 20.62 11.27 20.58 11.39 20.5C11.68 20.29 18.56 15.4 18.56 8.93C18.56 6.93 17.76 5.01 16.34 3.59C14.92 2.17 13 1.37 11 1.37ZM11 6.18C11.54 6.18 12.07 6.34 12.52 6.65C12.98 6.95 13.33 7.38 13.54 7.88C13.74 8.38 13.8 8.94 13.69 9.47C13.59 10 13.32 10.49 12.94 10.88C12.55 11.26 12.06 11.52 11.53 11.63C11 11.74 10.45 11.68 9.94 11.47C9.44 11.27 9.01 10.91 8.71 10.46C8.41 10.01 8.25 9.48 8.25 8.93C8.25 8.2 8.53 7.5 9.05 6.99C9.57 6.47 10.27 6.18 11 6.18Z" fill="#8047F8" fill-opacity="1.000000" fill-rule="nonzero"/>
	</g>
</svg>
