<svg width="18" height="18" viewBox="0 0 60 60" fill="none" xmlns="http://www.w3.org/2000/svg">
<path fill-rule="evenodd" clip-rule="evenodd" d="M7.49994 24.5002C7.49994 15.1114 15.1111 7.50024 24.4999 7.50024C33.8888 7.50024 41.4999 15.1114 41.4999 24.5002C41.4999 33.8891 33.8888 41.5002 24.4999 41.5002C15.1111 41.5002 7.49994 33.8891 7.49994 24.5002ZM24.4999 1.50024C11.7974 1.50024 1.49994 11.7977 1.49994 24.5002C1.49994 37.2028 11.7974 47.5002 24.4999 47.5002C29.4066 47.5002 33.9545 45.9638 37.6885 43.3457L51.6715 57.3287C53.2336 58.8908 55.7663 58.8908 57.3284 57.3287C58.8905 55.7666 58.8905 53.2339 57.3284 51.6718L43.3454 37.6889C45.9635 33.9548 47.4999 29.4069 47.4999 24.5002C47.4999 11.7977 37.2025 1.50024 24.4999 1.50024Z" fill="white"/>
</svg>
