<svg width="261" height="262" viewBox="0 0 261 262" fill="none" xmlns="http://www.w3.org/2000/svg">
<g filter="url(#filter0_i_303_723)">
<path d="M109.773 84.9137C109.85 84.4593 109.89 83.9918 109.89 83.5147C109.89 79.0515 106.397 75.4333 102.089 75.4333C98.8857 75.4333 96.1335 77.433 94.9321 80.2929C93.9588 79.4224 92.6958 78.8968 91.3156 78.8968C88.2381 78.8968 85.7433 81.5099 85.7433 84.7333C85.7433 84.9128 85.751 85.0904 85.7661 85.2658C84.2859 86.0169 83.2667 87.5929 83.2667 89.4154C83.2667 91.9658 85.2625 94.0333 87.7245 94.0333H108.775C111.237 94.0333 113.233 91.9658 113.233 89.4154C113.233 87.2204 111.755 85.3831 109.773 84.9137Z" fill="url(#paint0_linear_303_723)"/>
</g>
<g filter="url(#filter1_i_303_723)">
<path d="M182.218 135.115C182.567 133.145 182.748 131.12 182.748 129.053C182.748 109.712 166.851 94.0332 147.239 94.0332C132.66 94.0332 120.133 102.698 114.664 115.091C110.234 111.319 104.485 109.041 98.203 109.041C84.1951 109.041 72.8394 120.365 72.8394 134.333C72.8394 135.111 72.8746 135.881 72.9435 136.641C66.206 139.895 61.5667 146.724 61.5667 154.622C61.5667 165.674 70.6512 174.633 81.8576 174.633H177.676C188.882 174.633 197.967 165.674 197.967 154.622C197.967 145.111 191.238 137.149 182.218 135.115Z" fill="url(#paint1_linear_303_723)"/>
</g>
<g filter="url(#filter2_i_303_723)">
<path d="M203.321 83.7285C203.321 85.1333 203.2 86.5096 202.968 87.8476C208.981 89.2299 213.467 94.6397 213.467 101.103C213.467 108.612 207.41 114.7 199.939 114.7H179.639C174.081 102.516 161.665 94.0334 147.239 94.0334C137.757 94.0334 129.143 97.6988 122.774 103.671C122.616 102.84 122.533 101.981 122.533 101.103C122.533 95.7363 125.626 91.096 130.118 88.8845C130.072 88.3681 130.048 87.8452 130.048 87.3167C130.048 77.8254 137.619 70.1313 146.958 70.1313C151.146 70.1313 154.978 71.6788 157.932 74.242C161.578 65.8212 169.929 59.9333 179.648 59.9333C192.723 59.9333 203.321 70.5868 203.321 83.7285Z" fill="url(#paint2_linear_303_723)"/>
</g>
<g filter="url(#filter3_i_303_723)">
<path d="M107.02 197.367C101.725 204.312 94.3132 218.202 107.02 218.202C119.726 218.202 112.314 204.312 107.02 197.367Z" fill="#507CB1"/>
</g>
<g filter="url(#filter4_i_303_723)">
<path d="M122.316 180.833C117.022 187.778 109.609 201.668 122.316 201.668C135.022 201.668 127.61 187.778 122.316 180.833Z" fill="#507CB1"/>
</g>
<g filter="url(#filter5_i_303_723)">
<path d="M90.2826 180.833C84.9882 187.778 77.5761 201.668 90.2826 201.668C102.989 201.668 95.577 187.778 90.2826 180.833Z" fill="#507CB1"/>
</g>
<g filter="url(#filter6_f_303_723)">
<rect x="77.7241" y="169.354" width="102.05" height="14.8823" rx="7.44114" fill="#FFED8D" fill-opacity="0.5"/>
</g>
<g filter="url(#filter7_i_303_723)">
<path d="M168.65 174.633H148.448L139.665 198.072H155.475L148.156 227.333L174.798 188.945H163.087L168.65 174.633Z" fill="url(#paint3_linear_303_723)"/>
</g>
<defs>
<filter id="filter0_i_303_723" x="83.2667" y="75.4333" width="29.9667" height="28.6001" filterUnits="userSpaceOnUse" color-interpolation-filters="sRGB">
<feFlood flood-opacity="0" result="BackgroundImageFix"/>
<feBlend mode="normal" in="SourceGraphic" in2="BackgroundImageFix" result="shape"/>
<feColorMatrix in="SourceAlpha" type="matrix" values="0 0 0 0 0 0 0 0 0 0 0 0 0 0 0 0 0 0 127 0" result="hardAlpha"/>
<feOffset dy="11"/>
<feGaussianBlur stdDeviation="5"/>
<feComposite in2="hardAlpha" operator="arithmetic" k2="-1" k3="1"/>
<feColorMatrix type="matrix" values="0 0 0 0 1 0 0 0 0 1 0 0 0 0 1 0 0 0 1 0"/>
<feBlend mode="normal" in2="shape" result="effect1_innerShadow_303_723"/>
</filter>
<filter id="filter1_i_303_723" x="61.5667" y="94.0332" width="136.4" height="90.6001" filterUnits="userSpaceOnUse" color-interpolation-filters="sRGB">
<feFlood flood-opacity="0" result="BackgroundImageFix"/>
<feBlend mode="normal" in="SourceGraphic" in2="BackgroundImageFix" result="shape"/>
<feColorMatrix in="SourceAlpha" type="matrix" values="0 0 0 0 0 0 0 0 0 0 0 0 0 0 0 0 0 0 127 0" result="hardAlpha"/>
<feOffset dy="11"/>
<feGaussianBlur stdDeviation="5"/>
<feComposite in2="hardAlpha" operator="arithmetic" k2="-1" k3="1"/>
<feColorMatrix type="matrix" values="0 0 0 0 1 0 0 0 0 1 0 0 0 0 1 0 0 0 1 0"/>
<feBlend mode="normal" in2="shape" result="effect1_innerShadow_303_723"/>
</filter>
<filter id="filter2_i_303_723" x="122.533" y="59.9333" width="90.9333" height="64.7666" filterUnits="userSpaceOnUse" color-interpolation-filters="sRGB">
<feFlood flood-opacity="0" result="BackgroundImageFix"/>
<feBlend mode="normal" in="SourceGraphic" in2="BackgroundImageFix" result="shape"/>
<feColorMatrix in="SourceAlpha" type="matrix" values="0 0 0 0 0 0 0 0 0 0 0 0 0 0 0 0 0 0 127 0" result="hardAlpha"/>
<feOffset dy="11"/>
<feGaussianBlur stdDeviation="5"/>
<feComposite in2="hardAlpha" operator="arithmetic" k2="-1" k3="1"/>
<feColorMatrix type="matrix" values="0 0 0 0 1 0 0 0 0 1 0 0 0 0 1 0 0 0 1 0"/>
<feBlend mode="normal" in2="shape" result="effect1_innerShadow_303_723"/>
</filter>
<filter id="filter3_i_303_723" x="100.004" y="197.367" width="14.0319" height="23.8352" filterUnits="userSpaceOnUse" color-interpolation-filters="sRGB">
<feFlood flood-opacity="0" result="BackgroundImageFix"/>
<feBlend mode="normal" in="SourceGraphic" in2="BackgroundImageFix" result="shape"/>
<feColorMatrix in="SourceAlpha" type="matrix" values="0 0 0 0 0 0 0 0 0 0 0 0 0 0 0 0 0 0 127 0" result="hardAlpha"/>
<feOffset dy="9"/>
<feGaussianBlur stdDeviation="1.5"/>
<feComposite in2="hardAlpha" operator="arithmetic" k2="-1" k3="1"/>
<feColorMatrix type="matrix" values="0 0 0 0 1 0 0 0 0 1 0 0 0 0 1 0 0 0 0.21 0"/>
<feBlend mode="normal" in2="shape" result="effect1_innerShadow_303_723"/>
</filter>
<filter id="filter4_i_303_723" x="115.3" y="180.833" width="14.0319" height="23.8352" filterUnits="userSpaceOnUse" color-interpolation-filters="sRGB">
<feFlood flood-opacity="0" result="BackgroundImageFix"/>
<feBlend mode="normal" in="SourceGraphic" in2="BackgroundImageFix" result="shape"/>
<feColorMatrix in="SourceAlpha" type="matrix" values="0 0 0 0 0 0 0 0 0 0 0 0 0 0 0 0 0 0 127 0" result="hardAlpha"/>
<feOffset dy="9"/>
<feGaussianBlur stdDeviation="1.5"/>
<feComposite in2="hardAlpha" operator="arithmetic" k2="-1" k3="1"/>
<feColorMatrix type="matrix" values="0 0 0 0 1 0 0 0 0 1 0 0 0 0 1 0 0 0 0.21 0"/>
<feBlend mode="normal" in2="shape" result="effect1_innerShadow_303_723"/>
</filter>
<filter id="filter5_i_303_723" x="83.2667" y="180.833" width="14.0319" height="23.8352" filterUnits="userSpaceOnUse" color-interpolation-filters="sRGB">
<feFlood flood-opacity="0" result="BackgroundImageFix"/>
<feBlend mode="normal" in="SourceGraphic" in2="BackgroundImageFix" result="shape"/>
<feColorMatrix in="SourceAlpha" type="matrix" values="0 0 0 0 0 0 0 0 0 0 0 0 0 0 0 0 0 0 127 0" result="hardAlpha"/>
<feOffset dy="9"/>
<feGaussianBlur stdDeviation="1.5"/>
<feComposite in2="hardAlpha" operator="arithmetic" k2="-1" k3="1"/>
<feColorMatrix type="matrix" values="0 0 0 0 1 0 0 0 0 1 0 0 0 0 1 0 0 0 0.21 0"/>
<feBlend mode="normal" in2="shape" result="effect1_innerShadow_303_723"/>
</filter>
<filter id="filter6_f_303_723" x="0.724091" y="92.3542" width="256.05" height="168.882" filterUnits="userSpaceOnUse" color-interpolation-filters="sRGB">
<feFlood flood-opacity="0" result="BackgroundImageFix"/>
<feBlend mode="normal" in="SourceGraphic" in2="BackgroundImageFix" result="shape"/>
<feGaussianBlur stdDeviation="38.5" result="effect1_foregroundBlur_303_723"/>
</filter>
<filter id="filter7_i_303_723" x="137.665" y="174.633" width="37.1333" height="52.7" filterUnits="userSpaceOnUse" color-interpolation-filters="sRGB">
<feFlood flood-opacity="0" result="BackgroundImageFix"/>
<feBlend mode="normal" in="SourceGraphic" in2="BackgroundImageFix" result="shape"/>
<feColorMatrix in="SourceAlpha" type="matrix" values="0 0 0 0 0 0 0 0 0 0 0 0 0 0 0 0 0 0 127 0" result="hardAlpha"/>
<feOffset dx="-2"/>
<feGaussianBlur stdDeviation="4.5"/>
<feComposite in2="hardAlpha" operator="arithmetic" k2="-1" k3="1"/>
<feColorMatrix type="matrix" values="0 0 0 0 1 0 0 0 0 1 0 0 0 0 1 0 0 0 0.5 0"/>
<feBlend mode="normal" in2="shape" result="effect1_innerShadow_303_723"/>
</filter>
<linearGradient id="paint0_linear_303_723" x1="85.1727" y1="92.3726" x2="116.358" y2="70.0685" gradientUnits="userSpaceOnUse">
<stop stop-color="white" stop-opacity="0.65"/>
<stop offset="1" stop-color="white" stop-opacity="0.58"/>
</linearGradient>
<linearGradient id="paint1_linear_303_723" x1="70.2423" y1="167.437" x2="207.392" y2="64.4011" gradientUnits="userSpaceOnUse">
<stop stop-color="white" stop-opacity="0.65"/>
<stop offset="1" stop-color="white" stop-opacity="0.58"/>
</linearGradient>
<linearGradient id="paint2_linear_303_723" x1="207.683" y1="109.81" x2="115" y2="41.4944" gradientUnits="userSpaceOnUse">
<stop stop-color="white" stop-opacity="0.65"/>
<stop offset="1" stop-color="white" stop-opacity="0.58"/>
</linearGradient>
<linearGradient id="paint3_linear_303_723" x1="152.889" y1="222.257" x2="186.82" y2="175.06" gradientUnits="userSpaceOnUse">
<stop stop-color="#FF9900"/>
<stop offset="1" stop-color="#FFEE94"/>
</linearGradient>
</defs>
</svg>
