<svg width="248" height="248" viewBox="0 0 248 248" fill="none" xmlns="http://www.w3.org/2000/svg">
<g filter="url(#filter0_i_303_721)">
<path d="M95.7402 84.9137C95.8167 84.4593 95.8566 83.9918 95.8566 83.5147C95.8566 79.0515 92.3639 75.4333 88.0554 75.4333C84.8524 75.4333 82.1002 77.433 80.8988 80.2929C79.9254 79.4224 78.6624 78.8968 77.2822 78.8968C74.2047 78.8968 71.7099 81.5099 71.7099 84.7333C71.7099 84.9128 71.7177 85.0904 71.7328 85.2658C70.2526 86.0169 69.2333 87.5929 69.2333 89.4154C69.2333 91.9658 71.2292 94.0333 73.6912 94.0333H94.7422C97.2042 94.0333 99.2 91.9658 99.2 89.4154C99.2 87.2204 97.7217 85.3831 95.7402 84.9137Z" fill="url(#paint0_linear_303_721)"/>
</g>
<g filter="url(#filter1_i_303_721)">
<path d="M168.185 135.115C168.534 133.145 168.715 131.12 168.715 129.053C168.715 109.712 152.817 94.0332 133.206 94.0332C118.627 94.0332 106.1 102.698 100.631 115.091C96.2008 111.319 90.452 109.041 84.1697 109.041C70.1618 109.041 58.8061 120.365 58.8061 134.333C58.8061 135.111 58.8413 135.881 58.9102 136.641C52.1726 139.895 47.5333 146.724 47.5333 154.622C47.5333 165.674 56.6179 174.633 67.8243 174.633H163.642C174.849 174.633 183.933 165.674 183.933 154.622C183.933 145.111 177.204 137.149 168.185 135.115Z" fill="url(#paint1_linear_303_721)"/>
</g>
<g filter="url(#filter2_i_303_721)">
<path d="M189.288 83.7285C189.288 85.1333 189.167 86.5096 188.934 87.8476C194.947 89.2299 199.433 94.6397 199.433 101.103C199.433 108.612 193.377 114.7 185.906 114.7H165.605C160.048 102.516 147.631 94.0334 133.206 94.0334C123.724 94.0334 115.11 97.6988 108.741 103.671C108.583 102.84 108.5 101.981 108.5 101.103C108.5 95.7363 111.593 91.096 116.085 88.8845C116.039 88.3681 116.015 87.8452 116.015 87.3167C116.015 77.8254 123.586 70.1313 132.924 70.1313C137.112 70.1313 140.945 71.6788 143.899 74.242C147.544 65.8212 155.896 59.9333 165.615 59.9333C178.689 59.9333 189.288 70.5868 189.288 83.7285Z" fill="url(#paint2_linear_303_721)"/>
</g>
<defs>
<filter id="filter0_i_303_721" x="69.2333" y="75.4333" width="29.9667" height="28.6001" filterUnits="userSpaceOnUse" color-interpolation-filters="sRGB">
<feFlood flood-opacity="0" result="BackgroundImageFix"/>
<feBlend mode="normal" in="SourceGraphic" in2="BackgroundImageFix" result="shape"/>
<feColorMatrix in="SourceAlpha" type="matrix" values="0 0 0 0 0 0 0 0 0 0 0 0 0 0 0 0 0 0 127 0" result="hardAlpha"/>
<feOffset dy="11"/>
<feGaussianBlur stdDeviation="5"/>
<feComposite in2="hardAlpha" operator="arithmetic" k2="-1" k3="1"/>
<feColorMatrix type="matrix" values="0 0 0 0 1 0 0 0 0 1 0 0 0 0 1 0 0 0 1 0"/>
<feBlend mode="normal" in2="shape" result="effect1_innerShadow_303_721"/>
</filter>
<filter id="filter1_i_303_721" x="47.5333" y="94.0332" width="136.4" height="90.6001" filterUnits="userSpaceOnUse" color-interpolation-filters="sRGB">
<feFlood flood-opacity="0" result="BackgroundImageFix"/>
<feBlend mode="normal" in="SourceGraphic" in2="BackgroundImageFix" result="shape"/>
<feColorMatrix in="SourceAlpha" type="matrix" values="0 0 0 0 0 0 0 0 0 0 0 0 0 0 0 0 0 0 127 0" result="hardAlpha"/>
<feOffset dy="11"/>
<feGaussianBlur stdDeviation="5"/>
<feComposite in2="hardAlpha" operator="arithmetic" k2="-1" k3="1"/>
<feColorMatrix type="matrix" values="0 0 0 0 1 0 0 0 0 1 0 0 0 0 1 0 0 0 1 0"/>
<feBlend mode="normal" in2="shape" result="effect1_innerShadow_303_721"/>
</filter>
<filter id="filter2_i_303_721" x="108.5" y="59.9333" width="90.9333" height="64.7666" filterUnits="userSpaceOnUse" color-interpolation-filters="sRGB">
<feFlood flood-opacity="0" result="BackgroundImageFix"/>
<feBlend mode="normal" in="SourceGraphic" in2="BackgroundImageFix" result="shape"/>
<feColorMatrix in="SourceAlpha" type="matrix" values="0 0 0 0 0 0 0 0 0 0 0 0 0 0 0 0 0 0 127 0" result="hardAlpha"/>
<feOffset dy="11"/>
<feGaussianBlur stdDeviation="5"/>
<feComposite in2="hardAlpha" operator="arithmetic" k2="-1" k3="1"/>
<feColorMatrix type="matrix" values="0 0 0 0 1 0 0 0 0 1 0 0 0 0 1 0 0 0 1 0"/>
<feBlend mode="normal" in2="shape" result="effect1_innerShadow_303_721"/>
</filter>
<linearGradient id="paint0_linear_303_721" x1="71.1394" y1="92.3726" x2="102.324" y2="70.0685" gradientUnits="userSpaceOnUse">
<stop stop-color="white" stop-opacity="0.65"/>
<stop offset="1" stop-color="white" stop-opacity="0.58"/>
</linearGradient>
<linearGradient id="paint1_linear_303_721" x1="56.209" y1="167.437" x2="193.358" y2="64.4011" gradientUnits="userSpaceOnUse">
<stop stop-color="white" stop-opacity="0.65"/>
<stop offset="1" stop-color="white" stop-opacity="0.58"/>
</linearGradient>
<linearGradient id="paint2_linear_303_721" x1="193.65" y1="109.81" x2="100.967" y2="41.4944" gradientUnits="userSpaceOnUse">
<stop stop-color="white" stop-opacity="0.65"/>
<stop offset="1" stop-color="white" stop-opacity="0.58"/>
</linearGradient>
</defs>
</svg>
