<svg width="300" height="292" viewBox="0 0 300 292" fill="none" xmlns="http://www.w3.org/2000/svg">
<g filter="url(#filter0_i_303_720)">
<path d="M235.098 105.987C235.317 104.747 235.431 103.471 235.431 102.169C235.431 89.9902 225.431 80.1169 213.095 80.1169C203.924 80.1169 196.044 85.5736 192.604 93.3777C189.817 91.0023 186.201 89.568 182.249 89.568C173.437 89.568 166.294 96.6987 166.294 105.495C166.294 105.985 166.316 106.469 166.359 106.948C162.121 108.997 159.203 113.298 159.203 118.271C159.203 125.231 164.917 130.873 171.967 130.873H232.241C239.29 130.873 245.004 125.231 245.004 118.271C245.004 112.282 240.772 107.268 235.098 105.987Z" fill="url(#paint0_linear_303_720)"/>
</g>
<g filter="url(#filter1_f_303_720)">
<rect x="77.0266" y="77.7" width="145.017" height="136.557" rx="68.2787" fill="#FFEF9A" fill-opacity="0.5"/>
</g>
<g filter="url(#filter2_i_303_720)">
<path d="M213.584 145.979C213.584 181.686 184.908 210.632 149.535 210.632C114.162 210.632 85.4859 181.686 85.4859 145.979C85.4859 110.272 114.162 81.3254 149.535 81.3254C184.908 81.3254 213.584 110.272 213.584 145.979Z" fill="url(#paint1_linear_303_720)"/>
</g>
<g filter="url(#filter3_i_303_720)">
<path d="M133.911 183.821C134.233 182.004 134.401 180.134 134.401 178.225C134.401 160.373 119.708 145.9 101.582 145.9C88.1076 145.9 76.5296 153.898 71.4752 165.338C67.3806 161.856 62.0673 159.754 56.2609 159.754C43.3142 159.754 32.8187 170.206 32.8187 183.1C32.8187 183.818 32.8513 184.528 32.915 185.23C26.6878 188.234 22.4 194.538 22.4 201.828C22.4 212.03 30.7963 220.3 41.1537 220.3H129.713C140.07 220.3 148.467 212.03 148.467 201.828C148.467 193.048 142.247 185.699 133.911 183.821Z" fill="url(#paint2_linear_303_720)"/>
</g>
<defs>
<filter id="filter0_i_303_720" x="159.203" y="80.1169" width="85.8016" height="60.7559" filterUnits="userSpaceOnUse" color-interpolation-filters="sRGB">
<feFlood flood-opacity="0" result="BackgroundImageFix"/>
<feBlend mode="normal" in="SourceGraphic" in2="BackgroundImageFix" result="shape"/>
<feColorMatrix in="SourceAlpha" type="matrix" values="0 0 0 0 0 0 0 0 0 0 0 0 0 0 0 0 0 0 127 0" result="hardAlpha"/>
<feOffset dy="11"/>
<feGaussianBlur stdDeviation="5"/>
<feComposite in2="hardAlpha" operator="arithmetic" k2="-1" k3="1"/>
<feColorMatrix type="matrix" values="0 0 0 0 1 0 0 0 0 1 0 0 0 0 1 0 0 0 1 0"/>
<feBlend mode="normal" in2="shape" result="effect1_innerShadow_303_720"/>
</filter>
<filter id="filter1_f_303_720" x="0.0265503" y="0.699951" width="299.017" height="290.557" filterUnits="userSpaceOnUse" color-interpolation-filters="sRGB">
<feFlood flood-opacity="0" result="BackgroundImageFix"/>
<feBlend mode="normal" in="SourceGraphic" in2="BackgroundImageFix" result="shape"/>
<feGaussianBlur stdDeviation="38.5" result="effect1_foregroundBlur_303_720"/>
</filter>
<filter id="filter2_i_303_720" x="85.4859" y="81.3254" width="128.098" height="134.307" filterUnits="userSpaceOnUse" color-interpolation-filters="sRGB">
<feFlood flood-opacity="0" result="BackgroundImageFix"/>
<feBlend mode="normal" in="SourceGraphic" in2="BackgroundImageFix" result="shape"/>
<feColorMatrix in="SourceAlpha" type="matrix" values="0 0 0 0 0 0 0 0 0 0 0 0 0 0 0 0 0 0 127 0" result="hardAlpha"/>
<feOffset dy="5"/>
<feGaussianBlur stdDeviation="9"/>
<feComposite in2="hardAlpha" operator="arithmetic" k2="-1" k3="1"/>
<feColorMatrix type="matrix" values="0 0 0 0 1 0 0 0 0 1 0 0 0 0 1 0 0 0 0.81 0"/>
<feBlend mode="normal" in2="shape" result="effect1_innerShadow_303_720"/>
</filter>
<filter id="filter3_i_303_720" x="22.4" y="145.9" width="126.067" height="84.3999" filterUnits="userSpaceOnUse" color-interpolation-filters="sRGB">
<feFlood flood-opacity="0" result="BackgroundImageFix"/>
<feBlend mode="normal" in="SourceGraphic" in2="BackgroundImageFix" result="shape"/>
<feColorMatrix in="SourceAlpha" type="matrix" values="0 0 0 0 0 0 0 0 0 0 0 0 0 0 0 0 0 0 127 0" result="hardAlpha"/>
<feOffset dy="11"/>
<feGaussianBlur stdDeviation="5"/>
<feComposite in2="hardAlpha" operator="arithmetic" k2="-1" k3="1"/>
<feColorMatrix type="matrix" values="0 0 0 0 1 0 0 0 0 1 0 0 0 0 1 0 0 0 1 0"/>
<feBlend mode="normal" in2="shape" result="effect1_innerShadow_303_720"/>
</filter>
<linearGradient id="paint0_linear_303_720" x1="164.66" y1="126.341" x2="251" y2="61.5467" gradientUnits="userSpaceOnUse">
<stop stop-color="white"/>
<stop offset="1" stop-color="white" stop-opacity="0.58"/>
</linearGradient>
<linearGradient id="paint1_linear_303_720" x1="139.806" y1="181.17" x2="193.255" y2="88.3045" gradientUnits="userSpaceOnUse">
<stop stop-color="#FF9900"/>
<stop offset="1" stop-color="#FFEE94"/>
</linearGradient>
<linearGradient id="paint2_linear_303_720" x1="30.4184" y1="213.657" x2="157.062" y2="118.394" gradientUnits="userSpaceOnUse">
<stop stop-color="#E3E3E1"/>
<stop offset="1" stop-color="#FCFCFC"/>
</linearGradient>
</defs>
</svg>
