<svg width="40" height="40" viewBox="0 0 41 41" fill="none" xmlns="http://www.w3.org/2000/svg">
<rect x="0.341461" y="0.195129" width="40" height="40" rx="20" fill="#F3F2F2"/>
<path fill-rule="evenodd" clip-rule="evenodd" d="M14.3415 16.1951C14.3415 12.8814 17.0278 10.1951 20.3415 10.1951C23.6552 10.1951 26.3415 12.8814 26.3415 16.1951C26.3415 19.5088 23.6552 22.1951 20.3415 22.1951C17.0278 22.1951 14.3415 19.5088 14.3415 16.1951Z" fill="#403937"/>
<path fill-rule="evenodd" clip-rule="evenodd" d="M9.34312 35.0022C9.44624 29.0159 14.3308 24.1951 20.3415 24.1951C26.3523 24.1951 31.2369 29.0161 31.3398 35.0027C31.3466 35.3997 31.1179 35.7631 30.757 35.9287C27.5851 37.3842 24.0568 38.1951 20.3419 38.1951C16.6266 38.1951 13.098 37.384 9.92589 35.9283C9.565 35.7627 9.33628 35.3993 9.34312 35.0022Z" fill="#403937"/>
</svg>
