<svg width="23" height="29" viewBox="0 0 23 29" fill="none" xmlns="http://www.w3.org/2000/svg">
<path fill-rule="evenodd" clip-rule="evenodd" d="M5.34146 6.19513C5.34146 2.88142 8.02775 0.195129 11.3415 0.195129C14.6552 0.195129 17.3415 2.88142 17.3415 6.19513C17.3415 9.50884 14.6552 12.1951 11.3415 12.1951C8.02775 12.1951 5.34146 9.50884 5.34146 6.19513Z" fill="#403937"/>
<path fill-rule="evenodd" clip-rule="evenodd" d="M0.343121 25.0022C0.446241 19.0159 5.33077 14.1951 11.3415 14.1951C17.3523 14.1951 22.2369 19.0161 22.3398 25.0027C22.3466 25.3997 22.1179 25.7631 21.757 25.9287C18.5851 27.3842 15.0568 28.1951 11.3419 28.1951C7.62661 28.1951 4.09804 27.384 0.925889 25.9283C0.564995 25.7627 0.336282 25.3993 0.343121 25.0022Z" fill="#403937"/>
</svg>
